<svg width="209" height="48" viewBox="0 0 209 48" fill="none" xmlns="http://www.w3.org/2000/svg">
<circle cx="24" cy="24" r="24" fill="#111727"/>
<path d="M24.18 29.614H22.857L30.669 17.413H33.462V31H30.669V21.13L31.341 21.319L25.104 31H21.975L15.738 21.361L16.41 21.172V31H13.617V17.413H16.41L24.18 29.614Z" fill="white"/>
<path d="M69.816 29.584H68.592L76.848 15.448H79.56V31H76.848V19.36L77.472 19.528L70.704 31H67.728L60.96 19.576L61.608 19.384V31H58.872V15.448H61.608L69.816 29.584ZM86.0299 13.984V16.552H82.8379V13.984H86.0299ZM83.0779 19.048H85.7659V31H83.0779V19.048ZM88.9568 19.048H91.6208V31H88.9568V19.048ZM96.6608 18.784C97.3488 18.784 97.9808 18.88 98.5568 19.072C99.1488 19.264 99.6528 19.56 100.069 19.96C100.501 20.344 100.829 20.824 101.053 21.4C101.293 21.976 101.413 22.656 101.413 23.44V31H98.7488V23.968C98.7488 22.992 98.5088 22.272 98.0288 21.808C97.5648 21.328 96.8288 21.088 95.8208 21.088C95.0528 21.088 94.3488 21.256 93.7088 21.592C93.0848 21.912 92.5728 22.336 92.1728 22.864C91.7728 23.376 91.5408 23.944 91.4768 24.568L91.4528 23.272C91.5328 22.68 91.7088 22.12 91.9808 21.592C92.2528 21.048 92.6128 20.568 93.0608 20.152C93.5088 19.72 94.0368 19.384 94.6448 19.144C95.2528 18.904 95.9248 18.784 96.6608 18.784ZM107.475 13.984V16.552H104.283V13.984H107.475ZM104.523 19.048H107.211V31H104.523V19.048ZM110.402 19.048H113.066V31H110.402V19.048ZM118.106 18.784C118.794 18.784 119.426 18.88 120.002 19.072C120.594 19.264 121.098 19.56 121.514 19.96C121.946 20.344 122.274 20.824 122.498 21.4C122.738 21.976 122.858 22.656 122.858 23.44V31H120.194V23.968C120.194 22.992 119.954 22.272 119.474 21.808C119.01 21.328 118.274 21.088 117.266 21.088C116.498 21.088 115.794 21.256 115.154 21.592C114.53 21.912 114.018 22.336 113.618 22.864C113.218 23.376 112.986 23.944 112.922 24.568L112.898 23.272C112.978 22.68 113.154 22.12 113.426 21.592C113.698 21.048 114.058 20.568 114.506 20.152C114.954 19.72 115.482 19.384 116.09 19.144C116.698 18.904 117.37 18.784 118.106 18.784ZM127.634 18.784C128.338 18.784 128.978 18.88 129.554 19.072C130.13 19.264 130.626 19.56 131.042 19.96C131.474 20.344 131.81 20.824 132.05 21.4C132.29 21.976 132.41 22.656 132.41 23.44V31H129.722V23.968C129.722 22.992 129.482 22.272 129.002 21.808C128.538 21.328 127.802 21.088 126.794 21.088C126.026 21.088 125.322 21.256 124.682 21.592C124.058 21.912 123.546 22.336 123.146 22.864C122.762 23.376 122.538 23.944 122.474 24.568L122.426 23.224C122.506 22.648 122.69 22.096 122.978 21.568C123.266 21.024 123.634 20.544 124.082 20.128C124.53 19.712 125.05 19.384 125.642 19.144C126.25 18.904 126.914 18.784 127.634 18.784ZM140.668 31.264C139.58 31.264 138.58 31 137.668 30.472C136.772 29.944 136.052 29.216 135.508 28.288C134.98 27.344 134.716 26.264 134.716 25.048C134.716 23.8 134.988 22.712 135.532 21.784C136.076 20.84 136.812 20.104 137.74 19.576C138.668 19.048 139.708 18.784 140.86 18.784C142.14 18.784 143.156 19.064 143.908 19.624C144.66 20.184 145.196 20.936 145.516 21.88C145.836 22.824 145.996 23.88 145.996 25.048C145.996 25.704 145.9 26.4 145.708 27.136C145.516 27.856 145.212 28.528 144.796 29.152C144.396 29.776 143.852 30.288 143.164 30.688C142.492 31.072 141.66 31.264 140.668 31.264ZM141.484 29.056C142.38 29.056 143.14 28.888 143.764 28.552C144.404 28.2 144.884 27.72 145.204 27.112C145.54 26.504 145.708 25.816 145.708 25.048C145.708 24.2 145.54 23.48 145.204 22.888C144.868 22.28 144.388 21.816 143.764 21.496C143.14 21.16 142.38 20.992 141.484 20.992C140.204 20.992 139.212 21.368 138.508 22.12C137.804 22.872 137.452 23.848 137.452 25.048C137.452 25.832 137.62 26.528 137.956 27.136C138.308 27.744 138.788 28.216 139.396 28.552C140.004 28.888 140.7 29.056 141.484 29.056ZM145.708 19.048H148.396V31H145.9C145.9 31 145.884 30.848 145.852 30.544C145.82 30.24 145.788 29.872 145.756 29.44C145.724 28.992 145.708 28.568 145.708 28.168V19.048ZM151.564 14.248H154.228V31H151.564V14.248ZM163.686 31V15.4H169.83C171.446 15.4 172.702 15.768 173.598 16.504C174.51 17.24 174.966 18.264 174.966 19.576C174.966 20.392 174.798 21.056 174.462 21.568C174.142 22.08 173.686 22.464 173.094 22.72C172.502 22.976 171.806 23.144 171.006 23.224L171.054 23.08C171.646 23.112 172.206 23.192 172.734 23.32C173.262 23.432 173.726 23.616 174.126 23.872C174.542 24.128 174.87 24.48 175.11 24.928C175.35 25.376 175.47 25.952 175.47 26.656C175.47 27.6 175.262 28.384 174.846 29.008C174.43 29.632 173.846 30.112 173.094 30.448C172.358 30.768 171.51 30.952 170.55 31H163.686ZM165.606 29.2H170.07C171.158 29.2 172.006 29 172.614 28.6C173.238 28.184 173.55 27.536 173.55 26.656C173.55 25.952 173.35 25.424 172.95 25.072C172.566 24.72 172.07 24.488 171.462 24.376C170.854 24.248 170.23 24.184 169.59 24.184H165.606V29.2ZM165.606 22.384H169.59C170.678 22.384 171.526 22.152 172.134 21.688C172.758 21.208 173.07 20.528 173.07 19.648C173.07 18.784 172.758 18.16 172.134 17.776C171.526 17.392 170.758 17.2 169.83 17.2H165.606V22.384ZM178.355 14.2H180.275V31H178.355V14.2ZM188.854 31.24C187.83 31.24 186.87 30.992 185.974 30.496C185.078 30 184.35 29.288 183.79 28.36C183.246 27.416 182.974 26.304 182.974 25.024C182.974 23.744 183.246 22.64 183.79 21.712C184.35 20.768 185.078 20.04 185.974 19.528C186.87 19.016 187.83 18.76 188.854 18.76C189.878 18.76 190.83 19.016 191.71 19.528C192.606 20.04 193.326 20.768 193.87 21.712C194.414 22.64 194.686 23.744 194.686 25.024C194.686 26.304 194.414 27.416 193.87 28.36C193.326 29.288 192.606 30 191.71 30.496C190.83 30.992 189.878 31.24 188.854 31.24ZM188.854 29.44C189.526 29.44 190.158 29.272 190.75 28.936C191.342 28.6 191.822 28.104 192.19 27.448C192.574 26.776 192.766 25.968 192.766 25.024C192.766 24.08 192.574 23.28 192.19 22.624C191.822 21.952 191.342 21.44 190.75 21.088C190.158 20.736 189.526 20.56 188.854 20.56C188.182 20.56 187.542 20.736 186.934 21.088C186.342 21.424 185.854 21.928 185.47 22.6C185.086 23.256 184.894 24.064 184.894 25.024C184.894 25.968 185.078 26.776 185.446 27.448C185.83 28.104 186.326 28.6 186.934 28.936C187.542 29.272 188.182 29.44 188.854 29.44ZM201.419 29.104C200.571 29.104 199.763 28.904 198.995 28.504C198.243 28.088 197.627 27.496 197.146 26.728C196.683 25.96 196.451 25.04 196.451 23.968C196.451 22.896 196.683 21.976 197.146 21.208C197.611 20.424 198.219 19.824 198.971 19.408C199.723 18.976 200.539 18.76 201.419 18.76C201.691 18.76 201.947 18.784 202.187 18.832C202.443 18.864 202.683 18.92 202.907 19H207.779V21.064C207.091 21.064 206.403 20.936 205.715 20.68C205.043 20.424 204.467 20.16 203.987 19.888L203.891 19.792C204.451 20.096 204.907 20.456 205.259 20.872C205.627 21.288 205.899 21.76 206.075 22.288C206.267 22.8 206.363 23.36 206.363 23.968C206.363 25.04 206.131 25.96 205.667 26.728C205.219 27.496 204.619 28.088 203.867 28.504C203.115 28.904 202.299 29.104 201.419 29.104ZM204.947 35.8V35.272C204.947 34.424 204.723 33.808 204.275 33.424C203.843 33.04 203.187 32.848 202.307 32.848H199.907C199.379 32.848 198.915 32.8 198.515 32.704C198.131 32.624 197.811 32.496 197.555 32.32C197.299 32.144 197.107 31.928 196.979 31.672C196.851 31.416 196.787 31.128 196.787 30.808C196.787 30.2 196.971 29.744 197.339 29.44C197.707 29.12 198.163 28.92 198.707 28.84C199.251 28.76 199.771 28.76 200.267 28.84L201.419 29.104C200.555 29.152 199.883 29.24 199.403 29.368C198.939 29.496 198.707 29.768 198.707 30.184C198.707 30.424 198.795 30.624 198.971 30.784C199.163 30.928 199.443 31 199.811 31H202.307C203.139 31 203.899 31.112 204.587 31.336C205.275 31.576 205.827 31.968 206.243 32.512C206.659 33.072 206.867 33.832 206.867 34.792V35.8H204.947ZM201.419 27.304C201.947 27.304 202.435 27.176 202.883 26.92C203.347 26.664 203.723 26.288 204.011 25.792C204.299 25.296 204.443 24.688 204.443 23.968C204.443 23.248 204.299 22.64 204.011 22.144C203.739 21.632 203.371 21.248 202.907 20.992C202.443 20.72 201.947 20.584 201.419 20.584C200.891 20.584 200.395 20.72 199.931 20.992C199.467 21.248 199.091 21.624 198.803 22.12C198.515 22.616 198.371 23.232 198.371 23.968C198.371 24.688 198.515 25.296 198.803 25.792C199.091 26.288 199.467 26.664 199.931 26.92C200.395 27.176 200.891 27.304 201.419 27.304Z" fill="black"/>
</svg>
